<svg xmlns="http://www.w3.org/2000/svg" xmlns:dc="http://purl.org/dc/elements/1.1/" xmlns:cc="http://creativecommons.org/ns#" xmlns:rdf="http://www.w3.org/1999/02/22-rdf-syntax-ns#" xmlns:svg="http://www.w3.org/2000/svg" xmlns:sodipodi="http://sodipodi.sourceforge.net/DTD/sodipodi-0.dtd" xmlns:inkscape="http://www.inkscape.org/namespaces/inkscape"><defs>
    <clipPath id="clip1">
      <path d="M 0 0 L 21 0 L 21 37.445312 L 0 37.445312 Z M 0 0 " id="path370"/>
    </clipPath>
    <clipPath id="clip2">
      <path d="M 8 24 L 22.503906 24 L 22.503906 37.445312 L 8 37.445312 Z M 8 24 " id="path373"/>
    </clipPath>
  
    <clipPath id="clip1">
      <path d="M 0 0 L 23 0 L 23 20.105469 L 0 20.105469 Z M 0 0 " id="path490"/>
    </clipPath>
  
    <clipPath id="clip1">
      <path d="M 0 0 L 23 0 L 23 20.105469 L 0 20.105469 Z M 0 0 " id="path569"/>
    </clipPath>
  <clipPath clipPathUnits="userSpaceOnUse" id="clipPath45"><path d="M 0,22.513 H 25.792 V 0 H 0 Z" id="path43" inkscape:connector-curvature="0"/></clipPath>
    <clipPath id="clip1">
      <path d="M 0 0 L 16.128906 0 L 16.128906 16.128906 L 0 16.128906 Z M 0 0 " id="path29"/>
    </clipPath>
  
    <clipPath id="clip1">
      <path d="M 8 0 L 26.40625 0 L 26.40625 14.699219 L 8 14.699219 Z M 8 0 " id="path640"/>
    </clipPath>
  </defs><symbol id="sprite-arrow" viewBox="0 0 22.5047 37.4441">
  <metadata id="metadata391">
    <rdf:RDF>
      <cc:Work rdf:about="">
        <dc:format>image/svg+xml</dc:format>
        <dc:type rdf:resource="http://purl.org/dc/dcmitype/StillImage"/>
        <dc:title/>
      </cc:Work>
    </rdf:RDF>
  </metadata>
  <sodipodi:namedview pagecolor="#ffffff" bordercolor="#666666" borderopacity="1" objecttolerance="10" gridtolerance="10" guidetolerance="10" inkscape:pageopacity="0" inkscape:pageshadow="2" inkscape:window-width="640" inkscape:window-height="480" id="namedview389" showgrid="false" inkscape:zoom="4.7270465" inkscape:cx="15.003133" inkscape:cy="24.962733" inkscape:window-x="0" inkscape:window-y="0" inkscape:window-maximized="0" inkscape:current-layer="svg387"/>
  
  <g id="surface40332">
    <g clip-path="url(#clip1)" clip-rule="nonzero" id="g380">
      <path style="fill:none;stroke-width:3;stroke-linecap:round;stroke-linejoin:round;stroke:rgb(13.725281%,12.156677%,12.548828%);stroke-opacity:1;stroke-miterlimit:10;" d="M -0.0001 0.0003 C 4.796775 -0.632512 9.574119 -3.112981 13.195213 -7.288762 C 20.4374 -15.636419 17.480369 -27.605169 10.085838 -34.023137 " transform="matrix(1,0,0,-1,1.5001,1.5003)" id="path378"/>
    </g>
    <g clip-path="url(#clip2)" clip-rule="nonzero" id="g384">
      <path style="fill:none;stroke-width:3;stroke-linecap:round;stroke-linejoin:round;stroke:rgb(13.725281%,12.156677%,12.548828%);stroke-opacity:1;stroke-miterlimit:10;" d="M -0.00099375 0.000375 L -9.500994 -1.491813 L -10.993181 8.012094 " transform="matrix(1,0,0,-1,21.0049,34.4535)" id="path382"/>
    </g>
  </g>
</symbol><symbol id="sprite-basket-add" viewBox="0 0 23 20.1063">
  <metadata id="metadata512">
    <rdf:RDF>
      <cc:Work rdf:about="">
        <dc:format>image/svg+xml</dc:format>
        <dc:type rdf:resource="http://purl.org/dc/dcmitype/StillImage"/>
        <dc:title/>
      </cc:Work>
    </rdf:RDF>
  </metadata>
  <sodipodi:namedview pagecolor="#ffffff" bordercolor="#666666" borderopacity="1" objecttolerance="10" gridtolerance="10" guidetolerance="10" inkscape:pageopacity="0" inkscape:pageshadow="2" inkscape:window-width="640" inkscape:window-height="480" id="namedview510" showgrid="false" inkscape:zoom="8.8032108" inkscape:cx="15.333333" inkscape:cy="13.4042" inkscape:window-x="0" inkscape:window-y="0" inkscape:window-maximized="0" inkscape:current-layer="svg508"/>
  
  <g id="surface61622">
    <g clip-path="url(#clip1)" clip-rule="nonzero" id="g499">
      <path style="fill:none;stroke-width:2;stroke-linecap:butt;stroke-linejoin:miter;stroke:rgb(0%,0%,0%);stroke-opacity:1;stroke-miterlimit:10;" d="M 0.0018625 -0.00024375 C 0.0018625 -1.113525 -0.900481 -2.015869 -2.017669 -2.015869 C -3.13095 -2.015869 -4.033294 -1.113525 -4.033294 -0.00024375 C -4.033294 1.113038 -3.13095 2.015381 -2.017669 2.015381 C -0.900481 2.015381 0.0018625 1.113038 0.0018625 -0.00024375 Z M 0.0018625 -0.00024375 " transform="matrix(1,0,0,-1,11.0997,17.0896)" id="path495"/>
      <path style="fill:none;stroke-width:2;stroke-linecap:butt;stroke-linejoin:miter;stroke:rgb(0%,0%,0%);stroke-opacity:1;stroke-miterlimit:10;" d="M 0.0008375 -0.00024375 C 0.0008375 -1.113525 -0.901506 -2.015869 -2.014787 -2.015869 C -3.128069 -2.015869 -4.030412 -1.113525 -4.030412 -0.00024375 C -4.030412 1.113038 -3.128069 2.015381 -2.014787 2.015381 C -0.901506 2.015381 0.0008375 1.113038 0.0008375 -0.00024375 Z M 0.0008375 -0.00024375 " transform="matrix(1,0,0,-1,19.0226,17.0896)" id="path497"/>
    </g>
    <path style="fill:none;stroke-width:2;stroke-linecap:round;stroke-linejoin:round;stroke:rgb(0%,0%,0%);stroke-opacity:1;stroke-miterlimit:10;" d="M 0.00179375 -0.00074375 L -5.295081 -0.00074375 " transform="matrix(1,0,0,-1,16.9943,5.0266)" id="path501"/>
    <path style="fill:none;stroke-width:2;stroke-linecap:round;stroke-linejoin:round;stroke:rgb(0%,0%,0%);stroke-opacity:1;stroke-miterlimit:10;" d="M 0.00085625 -0.00118125 L 0.00085625 5.295694 " transform="matrix(1,0,0,-1,14.3468,7.6746)" id="path503"/>
    <path style="fill:none;stroke-width:2;stroke-linecap:round;stroke-linejoin:round;stroke:rgb(0%,0%,0%);stroke-opacity:1;stroke-miterlimit:10;" d="M -0.0001 -0.0002 L 6.066306 -0.0002 L 6.066306 -10.883012 L 19.03115 -10.883012 L 20.9999 -4.082231 " transform="matrix(1,0,0,-1,1.0001,0.9998)" id="path505"/>
  </g>
</symbol><symbol id="sprite-basket-added" viewBox="0 0 23 20.1063">
  <metadata id="metadata591">
    <rdf:RDF>
      <cc:Work rdf:about="">
        <dc:format>image/svg+xml</dc:format>
        <dc:type rdf:resource="http://purl.org/dc/dcmitype/StillImage"/>
        <dc:title/>
      </cc:Work>
    </rdf:RDF>
  </metadata>
  <sodipodi:namedview pagecolor="#ffffff" bordercolor="#666666" borderopacity="1" objecttolerance="10" gridtolerance="10" guidetolerance="10" inkscape:pageopacity="0" inkscape:pageshadow="2" inkscape:window-width="640" inkscape:window-height="480" id="namedview589" showgrid="false" inkscape:zoom="8.8032108" inkscape:cx="15.333333" inkscape:cy="13.4042" inkscape:window-x="0" inkscape:window-y="0" inkscape:window-maximized="0" inkscape:current-layer="svg587"/>
  
  <g id="surface73282">
    <g clip-path="url(#clip1)" clip-rule="nonzero" id="g578">
      <path style="fill:none;stroke-width:2;stroke-linecap:butt;stroke-linejoin:miter;stroke:rgb(0%,0%,0%);stroke-opacity:1;stroke-miterlimit:10;" d="M 0.0018625 -0.00024375 C 0.0018625 -1.113525 -0.900481 -2.015869 -2.017669 -2.015869 C -3.13095 -2.015869 -4.033294 -1.113525 -4.033294 -0.00024375 C -4.033294 1.113038 -3.13095 2.015381 -2.017669 2.015381 C -0.900481 2.015381 0.0018625 1.113038 0.0018625 -0.00024375 Z M 0.0018625 -0.00024375 " transform="matrix(1,0,0,-1,11.0997,17.0896)" id="path574"/>
      <path style="fill:none;stroke-width:2;stroke-linecap:butt;stroke-linejoin:miter;stroke:rgb(0%,0%,0%);stroke-opacity:1;stroke-miterlimit:10;" d="M 0.0008375 -0.00024375 C 0.0008375 -1.113525 -0.901506 -2.015869 -2.014787 -2.015869 C -3.128069 -2.015869 -4.030412 -1.113525 -4.030412 -0.00024375 C -4.030412 1.113038 -3.128069 2.015381 -2.014787 2.015381 C -0.901506 2.015381 0.0008375 1.113038 0.0008375 -0.00024375 Z M 0.0008375 -0.00024375 " transform="matrix(1,0,0,-1,19.0226,17.0896)" id="path576"/>
    </g>
    <path style="fill:none;stroke-width:2;stroke-linecap:round;stroke-linejoin:round;stroke:rgb(0%,0%,0%);stroke-opacity:1;stroke-miterlimit:10;" d="M -0.0001 -0.0002 L 6.066306 -0.0002 L 6.066306 -10.883012 L 19.03115 -10.883012 L 20.9999 -4.082231 " transform="matrix(1,0,0,-1,1.0001,0.9998)" id="path580"/>
    <path style="fill:none;stroke-width:2;stroke-linecap:round;stroke-linejoin:round;stroke:rgb(0%,0%,0%);stroke-opacity:1;stroke-miterlimit:10;" d="M 14.652344 11.516456 L 10.132812 11.516456 L 10.132812 16.035988 L 14.652344 16.035988 Z M 14.652344 11.516456 " transform="matrix(1,0,0,-1,0,20.1063)" id="path582"/>
    <path style="fill:none;stroke-width:1.5;stroke-linecap:round;stroke-linejoin:round;stroke:rgb(0%,0%,0%);stroke-opacity:1;stroke-miterlimit:10;" d="M 19.351562 16.453956 L 16.886719 16.453956 L 16.886719 18.9188 L 19.351562 18.9188 Z M 19.351562 16.453956 " transform="matrix(1,0,0,-1,0,20.1063)" id="path584"/>
  </g>
</symbol><symbol id="sprite-basket-top" viewBox="0 0 34.388931 30.017733"><metadata id="metadata35"><rdf:RDF><cc:Work rdf:about=""><dc:format>image/svg+xml</dc:format><dc:type rdf:resource="http://purl.org/dc/dcmitype/StillImage"/><dc:title/></cc:Work></rdf:RDF></metadata><sodipodi:namedview pagecolor="#ffffff" bordercolor="#666666" borderopacity="1" objecttolerance="10" gridtolerance="10" guidetolerance="10" inkscape:pageopacity="0" inkscape:pageshadow="2" inkscape:window-width="1284" inkscape:window-height="729" id="namedview31" showgrid="false" inkscape:zoom="16.490253" inkscape:cx="17.194466" inkscape:cy="15.008866" inkscape:window-x="0" inkscape:window-y="0" inkscape:window-maximized="0" inkscape:current-layer="g37"/><g id="g37" inkscape:groupmode="layer" inkscape:label="basket-top" transform="matrix(1.3333333,0,0,-1.3333333,0,30.017733)"><g id="g39"><g id="g41" clip-path="url(#clipPath45)"><g id="g47" transform="translate(12.4428,3.2846)"><path d="m 0,0 c 0,-1.262 -1.023,-2.285 -2.285,-2.285 -1.261,0 -2.284,1.023 -2.284,2.285 0,1.262 1.023,2.284 2.284,2.284 C -1.023,2.284 0,1.262 0,0 Z" style="fill:none;stroke:#000000;stroke-width:2;stroke-linecap:butt;stroke-linejoin:miter;stroke-miterlimit:10;stroke-dasharray:none;stroke-opacity:1" id="path49" inkscape:connector-curvature="0"/></g><g id="g51" transform="translate(21.4194,3.2846)"><path d="m 0,0 c 0,-1.262 -1.023,-2.285 -2.285,-2.285 -1.262,0 -2.284,1.023 -2.284,2.285 0,1.262 1.022,2.284 2.284,2.284 C -1.023,2.284 0,1.262 0,0 Z" style="fill:none;stroke:#000000;stroke-width:2;stroke-linecap:butt;stroke-linejoin:miter;stroke-miterlimit:10;stroke-dasharray:none;stroke-opacity:1" id="path53" inkscape:connector-curvature="0"/></g><g id="g55" transform="translate(1.0005,21.5132)"><path d="m 0,0 h 6.873 v -12.33 h 14.689 l 2.229,7.703 H 11.61" style="fill:none;stroke:#000000;stroke-width:2;stroke-linecap:round;stroke-linejoin:round;stroke-miterlimit:10;stroke-dasharray:none;stroke-opacity:1" id="path57" inkscape:connector-curvature="0"/></g></g></g></g></symbol><symbol id="sprite-faq-toggle" viewBox="0 0 16.1294 16.1294">
  <metadata id="metadata47">
    <rdf:RDF>
      <cc:Work rdf:about="">
        <dc:format>image/svg+xml</dc:format>
        <dc:type rdf:resource="http://purl.org/dc/dcmitype/StillImage"/>
        <dc:title/>
      </cc:Work>
    </rdf:RDF>
  </metadata>
  <sodipodi:namedview pagecolor="#ffffff" bordercolor="#666666" borderopacity="1" objecttolerance="10" gridtolerance="10" guidetolerance="10" inkscape:pageopacity="0" inkscape:pageshadow="2" inkscape:window-width="854" inkscape:window-height="658" id="namedview45" showgrid="false" inkscape:zoom="23.016975" inkscape:cx="10.752934" inkscape:cy="10.752934" inkscape:window-x="0" inkscape:window-y="0" inkscape:window-maximized="0" inkscape:current-layer="svg43"/>
  
  <g id="surface6662">
    <g clip-path="url(#clip1)" clip-rule="nonzero" id="g36">
      <path style="fill:none;stroke-width:2;stroke-linecap:butt;stroke-linejoin:miter;stroke:rgb(0%,0%,0%);stroke-opacity:1;stroke-miterlimit:10;" d="M -0.00049375 -0.00170625 C -0.00049375 -3.900144 -3.164556 -7.064206 -7.062994 -7.064206 C -10.965338 -7.064206 -14.1294 -3.900144 -14.1294 -0.00170625 C -14.1294 3.900638 -10.965338 7.0647 -7.062994 7.0647 C -3.164556 7.0647 -0.00049375 3.900638 -0.00049375 -0.00170625 Z M -0.00049375 -0.00170625 " transform="matrix(1,0,0,-1,15.1294,8.0647)" id="path34"/>
    </g>
    <path style="fill:none;stroke-width:2;stroke-linecap:round;stroke-linejoin:round;stroke:rgb(0%,0%,0%);stroke-opacity:1;stroke-miterlimit:10;" d="M -0.00144375 0.00026875 L -2.501444 -2.499731 " transform="matrix(1,0,0,-1,10.6616,7.2698)" id="path38"/>
    <path style="fill:none;stroke-width:2;stroke-linecap:round;stroke-linejoin:round;stroke:rgb(0%,0%,0%);stroke-opacity:1;stroke-miterlimit:10;" d="M -0.00144375 0.00026875 L -2.501444 2.500269 " transform="matrix(1,0,0,-1,8.1616,9.7698)" id="path40"/>
  </g>
</symbol><symbol id="sprite-send" viewBox="0 0 26.4083 14.6988">
  <metadata id="metadata662">
    <rdf:RDF>
      <cc:Work rdf:about="">
        <dc:format>image/svg+xml</dc:format>
        <dc:type rdf:resource="http://purl.org/dc/dcmitype/StillImage"/>
        <dc:title/>
      </cc:Work>
    </rdf:RDF>
  </metadata>
  <sodipodi:namedview pagecolor="#ffffff" bordercolor="#666666" borderopacity="1" objecttolerance="10" gridtolerance="10" guidetolerance="10" inkscape:pageopacity="0" inkscape:pageshadow="2" inkscape:window-width="640" inkscape:window-height="480" id="namedview660" showgrid="false" inkscape:zoom="9.2016524" inkscape:cx="17.605534" inkscape:cy="9.7992001" inkscape:window-x="0" inkscape:window-y="0" inkscape:window-maximized="0" inkscape:current-layer="svg658"/>
  
  <g id="surface86970">
    <g clip-path="url(#clip1)" clip-rule="nonzero" id="g647">
      <path style="fill:none;stroke-width:2;stroke-linecap:round;stroke-linejoin:round;stroke:rgb(0%,0%,0%);stroke-opacity:1;stroke-miterlimit:10;" d="M -0.00195 -0.00051875 L -12.0957 -0.00051875 C -13.201169 -0.00051875 -14.0957 0.897919 -14.0957 1.999481 L -14.0957 10.6987 C -14.0957 11.804169 -13.201169 12.6987 -12.0957 12.6987 L -0.00195 12.6987 C 1.103519 12.6987 1.99805 11.804169 1.99805 10.6987 L 1.99805 1.999481 C 1.99805 0.897919 1.103519 -0.00051875 -0.00195 -0.00051875 Z M -0.00195 -0.00051875 " transform="matrix(1,0,0,-1,23.4082,13.6987)" id="path645"/>
    </g>
    <path style="fill:none;stroke-width:2;stroke-linecap:round;stroke-linejoin:round;stroke:rgb(0%,0%,0%);stroke-opacity:1;stroke-miterlimit:10;" d="M 0.0009625 -0.0014625 L -4.741225 -3.270994 L -9.479506 -0.0014625 " transform="matrix(1,0,0,-1,22.1006,4.4126)" id="path649"/>
    <path style="fill:none;stroke-width:2;stroke-linecap:round;stroke-linejoin:round;stroke:rgb(0%,0%,0%);stroke-opacity:1;stroke-miterlimit:10;" d="M 0.0010375 0.000975 L -3.7724 0.000975 " transform="matrix(1,0,0,-1,4.7724,4.0791)" id="path651"/>
    <path style="fill:none;stroke-width:2;stroke-linecap:round;stroke-linejoin:round;stroke:rgb(0%,0%,0%);stroke-opacity:1;stroke-miterlimit:10;" d="M 0.0010375 0.00194375 L -3.7724 0.00194375 " transform="matrix(1,0,0,-1,4.7724,7.3496)" id="path653"/>
    <path style="fill:none;stroke-width:2;stroke-linecap:round;stroke-linejoin:round;stroke:rgb(0%,0%,0%);stroke-opacity:1;stroke-miterlimit:10;" d="M 0.0010375 -0.00149375 L -3.7724 -0.00149375 " transform="matrix(1,0,0,-1,4.7724,10.6196)" id="path655"/>
  </g>
</symbol></svg>